<?xml version="1.0" encoding="UTF-8" standalone="no"?><!DOCTYPE svg PUBLIC "-//W3C//DTD SVG 1.1//EN" "http://www.w3.org/Graphics/SVG/1.1/DTD/svg11.dtd"><!-- Generated by graphviz version 2.40.1 (20161225.0304)
 --><!-- Title: %0 Pages: 1 --><svg xmlns="http://www.w3.org/2000/svg" xmlns:xlink="http://www.w3.org/1999/xlink" width="1092pt" height="399pt" viewBox="0.00 0.00 1091.80 399.20">
<g id="graph0" class="graph" transform="scale(1 1) rotate(0) translate(4 395.2)">
<title>%0</title>
<polygon fill="#ffffff" stroke="transparent" points="-4,4 -4,-395.2 1087.8019,-395.2 1087.8019,4 -4,4"/>
<!-- branch -->
<g id="node1" class="node">
<title>branch</title>
<polygon fill="none" stroke="#000000" points="741.1166,-391.2 628.8924,-391.2 628.8924,-355.2 741.1166,-355.2 741.1166,-391.2"/>
<text text-anchor="middle" x="685.0045" y="-370.2" font-family="Helvetica,sans-Serif" font-size="10.00" fill="#000000">Main Branch (master)</text>
</g>
<!-- feature -->
<g id="node2" class="node">
<title>feature</title>
<polygon fill="none" stroke="#000000" points="385.4116,-302.4 300.5974,-302.4 300.5974,-266.4 385.4116,-266.4 385.4116,-302.4"/>
<text text-anchor="middle" x="343.0045" y="-281.4" font-family="Helvetica,sans-Serif" font-size="10.00" fill="#000000">Feature Branch</text>
</g>
<!-- branch&#45;&gt;feature -->
<g id="edge1" class="edge">
<title>branch-&gt;feature</title>
<path fill="none" stroke="#000000" d="M628.7214,-369.282C545.4383,-363.0888 396.9227,-350.3809 376.0689,-337.2 366.5078,-331.1568 359.2405,-321.2397 353.9885,-311.6224"/>
<polygon fill="#000000" stroke="#000000" points="357.1184,-310.0556 349.5615,-302.6296 350.8381,-313.1473 357.1184,-310.0556"/>
<text text-anchor="middle" x="439.9723" y="-324.6" font-family="Times,serif" font-size="14.00" fill="#000000">Create Feature Branch</text>
</g>
<!-- release -->
<g id="node3" class="node">
<title>release</title>
<polygon fill="none" stroke="#000000" points="313.6326,-124.8 226.3764,-124.8 226.3764,-88.8 313.6326,-88.8 313.6326,-124.8"/>
<text text-anchor="middle" x="270.0045" y="-103.8" font-family="Helvetica,sans-Serif" font-size="10.00" fill="#000000">Release Branch</text>
</g>
<!-- branch&#45;&gt;release -->
<g id="edge6" class="edge">
<title>branch-&gt;release</title>
<path fill="none" stroke="#000000" d="M654.2778,-355.1395C609.8584,-328.3034 531.378,-277.9028 516.5163,-248.4 495.3619,-206.4054 553.8231,-178.3143 523.0045,-142.8 510.1344,-127.9689 394.062,-116.4335 323.6869,-110.7287"/>
<polygon fill="#000000" stroke="#000000" points="323.8993,-107.2347 313.653,-109.9296 323.3435,-114.2126 323.8993,-107.2347"/>
<text text-anchor="middle" x="580.7486" y="-235.8" font-family="Times,serif" font-size="14.00" fill="#000000">Create Release Branch</text>
</g>
<!-- hotfix -->
<g id="node4" class="node">
<title>hotfix</title>
<polygon fill="none" stroke="#000000" points="76.0135,-124.8 -.0045,-124.8 -.0045,-88.8 76.0135,-88.8 76.0135,-124.8"/>
<text text-anchor="middle" x="38.0045" y="-103.8" font-family="Helvetica,sans-Serif" font-size="10.00" fill="#000000">Hotfix Branch</text>
</g>
<!-- branch&#45;&gt;hotfix -->
<g id="edge11" class="edge">
<title>branch-&gt;hotfix</title>
<path fill="none" stroke="#000000" d="M628.8921,-370.3893C562.9852,-366.3236 450.63,-356.9995 356.0045,-337.2 226.7642,-310.1577 181.0891,-323.5154 72.4981,-248.4 31.2823,-219.8899 19.3396,-206.9786 3.0045,-159.6 .5707,-152.5411 .1958,-149.7183 3.0045,-142.8 4.4329,-139.2816 6.3887,-135.9182 8.651,-132.7589"/>
<polygon fill="#000000" stroke="#000000" points="11.4837,-134.827 15.2035,-124.9066 6.1092,-130.342 11.4837,-134.827"/>
<text text-anchor="middle" x="133.2577" y="-235.8" font-family="Times,serif" font-size="14.00" fill="#000000">Create Hotfix Branch</text>
</g>
<!-- tag -->
<g id="node5" class="node">
<title>tag</title>
<polygon fill="none" stroke="#000000" points="959.5671,-302.4 898.4419,-302.4 898.4419,-266.4 959.5671,-266.4 959.5671,-302.4"/>
<text text-anchor="middle" x="929.0045" y="-281.4" font-family="Helvetica,sans-Serif" font-size="10.00" fill="#000000">Tag (v1.0)</text>
</g>
<!-- branch&#45;&gt;tag -->
<g id="edge16" class="edge">
<title>branch-&gt;tag</title>
<path fill="none" stroke="#000000" d="M741.4989,-366.5309C789.7441,-360.1363 854.8917,-349.6344 878.0045,-337.2 890.2258,-330.6251 901.2775,-320.0906 909.9436,-310.1546"/>
<polygon fill="#000000" stroke="#000000" points="912.6804,-312.3373 916.3588,-302.4015 907.2872,-307.8747 912.6804,-312.3373"/>
<text text-anchor="middle" x="929.9039" y="-324.6" font-family="Times,serif" font-size="14.00" fill="#000000">Create Tag</text>
</g>
<!-- commit -->
<g id="node6" class="node">
<title>commit</title>
<polygon fill="none" stroke="#000000" points="225.0045,-213.6 171.0045,-213.6 171.0045,-177.6 225.0045,-177.6 225.0045,-213.6"/>
<text text-anchor="middle" x="198.0045" y="-192.6" font-family="Helvetica,sans-Serif" font-size="10.00" fill="#000000">Commit</text>
</g>
<!-- feature&#45;&gt;commit -->
<g id="edge2" class="edge">
<title>feature-&gt;commit</title>
<path fill="none" stroke="#000000" d="M300.3884,-278.7091C264.3441,-272.9729 216.6043,-262.8882 204.0157,-248.4 198.2511,-241.7655 195.9444,-232.7569 195.3203,-224.06"/>
<polygon fill="#000000" stroke="#000000" points="198.8192,-223.771 195.2743,-213.7868 191.8192,-223.8024 198.8192,-223.771"/>
<text text-anchor="middle" x="257.4989" y="-235.8" font-family="Times,serif" font-size="14.00" fill="#000000">Work and Commit</text>
</g>
<!-- merge -->
<g id="node7" class="node">
<title>merge</title>
<polygon fill="none" stroke="#000000" points="499.0045,-36 445.0045,-36 445.0045,0 499.0045,0 499.0045,-36"/>
<text text-anchor="middle" x="472.0045" y="-15" font-family="Helvetica,sans-Serif" font-size="10.00" fill="#000000">Merge</text>
</g>
<!-- feature&#45;&gt;merge -->
<g id="edge4" class="edge">
<title>feature-&gt;merge</title>
<path fill="none" stroke="#000000" d="M354.7468,-266.3941C358.2337,-260.7373 361.9376,-254.4003 365.0045,-248.4 388.1612,-203.0949 387.9416,-189.0204 409.2127,-142.8 424.8575,-108.8051 444.4527,-70.4551 457.5537,-45.3477"/>
<polygon fill="#000000" stroke="#000000" points="460.6955,-46.8926 462.235,-36.4102 454.4946,-43.6446 460.6955,-46.8926"/>
<text text-anchor="middle" x="479.4004" y="-147" font-family="Times,serif" font-size="14.00" fill="#000000">Merge into Main Branch</text>
</g>
<!-- release&#45;&gt;commit -->
<g id="edge7" class="edge">
<title>release-&gt;commit</title>
<path fill="none" stroke="#000000" d="M226.2061,-118.9583C214.745,-124.3457 203.7304,-132.0011 197.0157,-142.8 192.5905,-149.9168 191.4515,-158.6828 191.8161,-167.013"/>
<polygon fill="#000000" stroke="#000000" points="188.3623,-167.6235 192.9479,-177.1746 195.3193,-166.8485 188.3623,-167.6235"/>
<text text-anchor="middle" x="250.4989" y="-147" font-family="Times,serif" font-size="14.00" fill="#000000">Work and Commit</text>
</g>
<!-- release&#45;&gt;merge -->
<g id="edge9" class="edge">
<title>release-&gt;merge</title>
<path fill="none" stroke="#000000" d="M242.9134,-88.7458C230.5671,-78.3277 220.6191,-65.1277 230.2127,-54 243.371,-38.7376 370.0914,-26.3065 434.6277,-20.9064"/>
<polygon fill="#000000" stroke="#000000" points="435.1177,-24.378 444.7974,-20.0706 434.5443,-17.4015 435.1177,-24.378"/>
<text text-anchor="middle" x="300.4004" y="-58.2" font-family="Times,serif" font-size="14.00" fill="#000000">Merge into Main Branch</text>
</g>
<!-- hotfix&#45;&gt;commit -->
<g id="edge12" class="edge">
<title>hotfix-&gt;commit</title>
<path fill="none" stroke="#000000" d="M18.0928,-125.0266C8.7741,-135.7514 1.4222,-149.2047 10.0157,-159.6 28.7546,-182.2679 111.4579,-190.8001 160.7099,-193.9072"/>
<polygon fill="#000000" stroke="#000000" points="160.7855,-197.4175 170.9727,-194.507 161.194,-190.4294 160.7855,-197.4175"/>
<text text-anchor="middle" x="63.4989" y="-147" font-family="Times,serif" font-size="14.00" fill="#000000">Work and Commit</text>
</g>
<!-- hotfix&#45;&gt;merge -->
<g id="edge14" class="edge">
<title>hotfix-&gt;merge</title>
<path fill="none" stroke="#000000" d="M48.6887,-88.621C56.8067,-76.6062 69.1337,-61.7018 84.2127,-54 114.9834,-38.2834 343.85,-24.7135 434.85,-19.8822"/>
<polygon fill="#000000" stroke="#000000" points="435.1872,-23.3694 444.9899,-19.3498 434.8202,-16.379 435.1872,-23.3694"/>
<text text-anchor="middle" x="154.4004" y="-58.2" font-family="Times,serif" font-size="14.00" fill="#000000">Merge into Main Branch</text>
</g>
<!-- tag_commit -->
<g id="node8" class="node">
<title>tag_commit</title>
<polygon fill="none" stroke="#000000" points="1068.4459,-213.6 997.5631,-213.6 997.5631,-177.6 1068.4459,-177.6 1068.4459,-213.6"/>
<text text-anchor="middle" x="1033.0045" y="-192.6" font-family="Helvetica,sans-Serif" font-size="10.00" fill="#000000">Tag Commit</text>
</g>
<!-- tag&#45;&gt;tag_commit -->
<g id="edge17" class="edge">
<title>tag-&gt;tag_commit</title>
<path fill="none" stroke="#000000" d="M930.4915,-266.3233C932.2834,-255.1152 936.2175,-241.0937 944.8383,-231.6 948.1966,-227.9017 968.0348,-219.6715 988.0439,-212.0128"/>
<polygon fill="#000000" stroke="#000000" points="989.3831,-215.2483 997.4986,-208.4373 986.907,-208.7009 989.3831,-215.2483"/>
<text text-anchor="middle" x="980.5876" y="-235.8" font-family="Times,serif" font-size="14.00" fill="#000000">Tag Commit</text>
</g>
<!-- commit&#45;&gt;feature -->
<g id="edge3" class="edge">
<title>commit-&gt;feature</title>
<path fill="none" stroke="#000000" d="M225.0537,-199.1261C249.1372,-203.4049 284.2843,-212.5663 309.0045,-231.6 317.7512,-238.3347 324.8976,-248.0014 330.3414,-257.2275"/>
<polygon fill="#000000" stroke="#000000" points="327.3598,-259.0708 335.2138,-266.1817 333.5084,-255.725 327.3598,-259.0708"/>
<text text-anchor="middle" x="342.8776" y="-235.8" font-family="Times,serif" font-size="14.00" fill="#000000">Iterate</text>
</g>
<!-- commit&#45;&gt;release -->
<g id="edge8" class="edge">
<title>commit-&gt;release</title>
<path fill="none" stroke="#000000" d="M225.1244,-189.9384C252.791,-183.5475 292.9168,-172.3626 302.0045,-159.6 308.0975,-151.0432 304.836,-141.3001 298.4893,-132.533"/>
<polygon fill="#000000" stroke="#000000" points="301.0996,-130.1992 291.9731,-124.8179 295.7517,-134.716 301.0996,-130.1992"/>
<text text-anchor="middle" x="323.8776" y="-147" font-family="Times,serif" font-size="14.00" fill="#000000">Iterate</text>
</g>
<!-- commit&#45;&gt;hotfix -->
<g id="edge13" class="edge">
<title>commit-&gt;hotfix</title>
<path fill="none" stroke="#000000" d="M171.6218,-177.5819C155.5669,-166.931 134.4675,-153.4822 115.0045,-142.8 105.5931,-137.6346 95.3124,-132.4978 85.4165,-127.7903"/>
<polygon fill="#000000" stroke="#000000" points="86.6281,-124.493 76.0876,-123.4217 83.6594,-130.8323 86.6281,-124.493"/>
<text text-anchor="middle" x="160.8776" y="-147" font-family="Times,serif" font-size="14.00" fill="#000000">Iterate</text>
</g>
<!-- merge&#45;&gt;branch -->
<g id="edge5" class="edge">
<title>merge-&gt;branch</title>
<path fill="none" stroke="#000000" d="M482.8431,-36.3899C496.9568,-60.5431 522.1654,-104.3963 542.0045,-142.8 557.986,-173.7363 548.7573,-191.3626 575.5521,-213.6 599.7591,-233.6897 621.4876,-209.6326 644.0045,-231.6 674.7822,-261.6266 682.8212,-313.2291 684.7113,-345.1553"/>
<polygon fill="#000000" stroke="#000000" points="681.2154,-345.3277 685.1405,-355.1686 688.2089,-345.0278 681.2154,-345.3277"/>
<text text-anchor="middle" x="633.7307" y="-191.4" font-family="Times,serif" font-size="14.00" fill="#000000">Fast-Forward Merge</text>
</g>
<!-- merge&#45;&gt;branch -->
<g id="edge10" class="edge">
<title>merge-&gt;branch</title>
<path fill="none" stroke="#000000" d="M499.1818,-22.0985C562.2094,-32.3671 713.0045,-61.6525 713.0045,-106.8 713.0045,-284.4 713.0045,-284.4 713.0045,-284.4 713.0045,-305.6152 705.6454,-328.4167 698.4727,-345.6021"/>
<polygon fill="#000000" stroke="#000000" points="695.1538,-344.4546 694.3281,-355.0172 701.5605,-347.2749 695.1538,-344.4546"/>
<text text-anchor="middle" x="770.7307" y="-191.4" font-family="Times,serif" font-size="14.00" fill="#000000">Fast-Forward Merge</text>
</g>
<!-- merge&#45;&gt;branch -->
<g id="edge15" class="edge">
<title>merge-&gt;branch</title>
<path fill="none" stroke="#000000" d="M499.258,-21.2557C588.1548,-32.2385 864.0045,-69.3369 864.0045,-106.8 864.0045,-284.4 864.0045,-284.4 864.0045,-284.4 864.0045,-310.5534 801.9071,-336.7043 750.8622,-353.7827"/>
<polygon fill="#000000" stroke="#000000" points="749.5606,-350.5261 741.1501,-356.9693 751.7429,-357.1773 749.5606,-350.5261"/>
<text text-anchor="middle" x="921.7307" y="-191.4" font-family="Times,serif" font-size="14.00" fill="#000000">Fast-Forward Merge</text>
</g>
<!-- tag_commit&#45;&gt;branch -->
<g id="edge18" class="edge">
<title>tag_commit-&gt;branch</title>
<path fill="none" stroke="#000000" d="M1030.2779,-213.7396C1024.5066,-245.0393 1007.8712,-308.5808 965.0045,-337.2 931.107,-359.831 823.0684,-368.2512 751.534,-371.3734"/>
<polygon fill="#000000" stroke="#000000" points="751.1052,-367.888 741.2578,-371.7967 751.3934,-374.8821 751.1052,-367.888"/>
<text text-anchor="middle" x="1049.4032" y="-280.2" font-family="Times,serif" font-size="14.00" fill="#000000">Tag Release</text>
</g>
</g>
</svg>